#!OML:ASF F:\VICON\USERDATA\INSTALL\rory3\rory3.ASF
:FULLY-SPECIFIED
:DEGREES
4794
root -0.00824461 17.6157 3.35762 377.23 -99.1334 703.153
lowerback 11.7942 2.85528 1.61245
upperback 1.11303 3.94643 -0.0247355
thorax -5.32476 1.88326 -1.56451
lowerneck -17.875 0.783141 -9.47496
upperneck 38.883 1.60152 4.20302
head 17.0507 -0.6403 3.75443
rclavicle -1.11319e-014 1.03368e-014
rhumerus -33.811 -12.0071 -72.4851
rradius 41.1152
rwrist 4.63362
rhand -17.4219 9.75884
rfingers 7.12502
rthumb 8.82827 -20.0365
lclavicle -1.11319e-014 1.03368e-014
lhumerus -35.6652 9.04905 82.7505
lradius 31.0357
lwrist -4.1826
lhand -23.5602 22.0572
lfingers 7.12502
lthumb 2.90213 52.0172
rfemur -2.50791 8.33817 6.659
rtibia 29.9239
rfoot -18.6867 0.431854
rtoes -8.72815
lfemur -7.31686 -10.0064 -7.45596
ltibia 14.5874
lfoot -3.76684 -12.3777
ltoes -4.59695
4795
root -0.052043 17.6255 3.47662 378.04 -99.2631 702.339
lowerback 11.8212 2.8391 1.43727
upperback 1.15963 3.90029 -0.0269121
thorax -5.30389 1.86432 -1.46158
lowerneck -17.7975 0.872763 -9.28976
upperneck 38.7909 1.74272 4.00752
head 16.9721 -0.5769 3.65284
rclavicle 4.76089e-014 -4.77083e-015
rhumerus -33.7534 -12.1234 -72.3275
rradius 41.1202
rwrist 4.54236
rhand -17.5029 9.82871
rfingers 7.12502
rthumb 8.75003 -19.9699
lclavicle 4.76089e-014 -4.77083e-015
lhumerus -35.5889 8.47237 83.1733
lradius 31.3218
lwrist -3.75429
lhand -23.6281 21.789
lfingers 7.12502
lthumb 2.83651 51.7499
rfemur -2.5129 8.59014 6.16938
rtibia 30.0378
rfoot -18.1689 -0.189026
rtoes -9.62153
lfemur -7.46909 -9.64118 -8.13597
ltibia 15.1239
lfoot -4.04983 -12.479
ltoes -1.79359
4796
root -0.0929657 17.6289 3.59471 379.014 -99.3449 701.438
lowerback 11.7836 2.83547 1.28556
upperback 1.1766 3.87359 -0.048551
thorax -5.27457 1.85477 -1.39248
lowerneck -17.9198 0.795338 -9.45755
upperneck 38.9546 1.57851 4.27453
head 17.1012 -0.642731 3.78335
rclavicle -1.51076e-014 -2.38542e-015
rhumerus -33.7395 -12.6167 -72.1188
rradius 41.0761
rwrist 4.51595
rhand -17.5667 9.94244
rfingers 7.12502
rthumb 8.68847 -19.8587
lclavicle -1.51076e-014 -2.38542e-015
lhumerus -35.4608 7.9045 83.5398
lradius 31.5132
lwrist -3.55132
lhand -23.639 21.8972
lfingers 7.12502
lthumb 2.82599 51.8582
rfemur -2.6852 8.67263 5.64224
rtibia 30.2708
rfoot -17.5987 -0.66139
rtoes -9.69259
lfemur -7.66182 -8.84942 -8.89511
ltibia 15.5691
lfoot -4.85788 -12.5574
ltoes -4.41715
4797
root -0.13427 17.6298 3.70902 380.103 -99.3508 700.396
lowerback 11.7723 2.8306 1.08934
upperback 1.15532 3.84435 -0.017652
thorax -5.30673 1.84473 -1.24625
lowerneck -17.8963 0.629032 -9.91787
upperneck 39.1111 1.29906 4.69197
head 17.2002 -0.780243 4.01076
rclavicle 9.93923e-016 -6.36111e-015
rhumerus -33.8673 -12.9895 -71.7895
rradius 41.0441
rwrist 4.46943
rhand -17.4623 9.97811
rfingers 7.12502
rthumb 8.78929 -19.8189
lclavicle 9.93923e-016 -6.36111e-015
lhumerus -35.3766 7.37238 83.8948
lradius 31.5808
lwrist -3.55539
lhand -23.1681 21.915
lfingers 7.12502
lthumb 3.2808 51.8695
rfemur -2.85164 8.87887 5.15836
rtibia 30.639
rfoot -17.0794 -1.13483
rtoes -8.66331
lfemur -7.75451 -8.15816 -9.65775
ltibia 15.9009
lfoot -5.73926 -12.5699
ltoes -7.68626
4798
root -0.17361 17.6414 3.82276 381.501 -99.2986 699.026
lowerback 11.8431 2.76973 0.905836
upperback 1.11218 3.74062 -0.0362699
thorax -5.40469 1.79643 -1.15219
lowerneck -17.7161 0.583579 -9.84072
upperneck 39.0949 1.19638 4.60979
head 17.159 -0.824774 3.93472
rclavicle -1.00386e-014 -2.38542e-015
rhumerus -34.0247 -13.3517 -71.5991
rradius 41.0473
rwrist 4.42929
rhand -17.4487 10.053
rfingers 7.12502
rthumb 8.80236 -19.7434
lclavicle -1.00386e-014 -2.38542e-015
lhumerus -35.348 6.7906 84.1878
lradius 31.7124
lwrist -3.53196
lhand -22.8285 22.032
lfingers 7.12502
lthumb 3.60876 51.9812
rfemur -3.04816 9.05803 4.68523
rtibia 31.1324
rfoot -16.5031 -1.58692
rtoes -6.67774
lfemur -7.80946 -7.83862 -10.4003
ltibia 16.0705
lfoot -6.13123 -12.5894
ltoes -8.45293
4799
root -0.209988 17.6552 3.93871 382.81 -99.2866 697.737
lowerback 11.9576 2.68855 0.769393
upperback 1.06823 3.61236 -0.110575
thorax -5.52114 1.73424 -1.14055
lowerneck -17.5426 0.660276 -9.37438
upperneck 39.0793 1.21995 4.32776
head 17.1097 -0.787483 3.72132
rclavicle -3.8266e-014 7.15625e-015
rhumerus -34.1792 -13.7711 -71.5312
rradius 41.0826
rwrist 4.46075
rhand -17.619 10.1294
rfingers 7.12502
rthumb 8.63799 -19.6739
lclavicle -3.8266e-014 7.15625e-015
lhumerus -35.3671 5.99859 84.439
lradius 31.9209
lwrist -3.26805
lhand -22.9274 21.9064
lfingers 7.12502
lthumb 3.51324 51.8572
rfemur -3.29098 9.27609 4.2724
rtibia 31.708
rfoot -15.788 -2.34793
rtoes -5.67906
lfemur -7.83522 -7.53026 -11.1073
ltibia 16.1066
lfoot -6.19304 -12.7648
ltoes -7.93746
